<svg xmlns="http://www.w3.org/2000/svg" viewBox="0 0 4000 21.63"><defs><style>.cls-1{fill:none;stroke:#413f3d;stroke-miterlimit:10;}</style></defs><g id="Layer_2" data-name="Layer 2"><g id="Layer_1-2" data-name="Layer 1"><line class="cls-1" x1="2009.6" y1="10.81" x2="4000" y2="10.81"/><line class="cls-1" y1="10.81" x2="1990.55" y2="10.81"/><path class="cls-1" d="M2007.07,17.89c-.78-6.29-7.07-7.08-7.07-7.08S2000.79,17.1,2007.07,17.89Z"/><path class="cls-1" d="M2010,10.81c-5-3.88-10,0-10,0S2005,14.7,2010,10.81Z"/><path class="cls-1" d="M2007.07,3.74c-6.28.79-7.07,7.07-7.07,7.07S2006.29,10,2007.07,3.74Z"/><path class="cls-1" d="M2000,.81c-3.89,5,0,10,0,10S2003.89,5.81,2000,.81Z"/><path class="cls-1" d="M1992.93,3.74c.78,6.29,7.07,7.07,7.07,7.07S1999.21,4.53,1992.93,3.74Z"/><path class="cls-1" d="M1990,10.81c5,3.89,10,0,10,0S1995,6.93,1990,10.81Z"/><path class="cls-1" d="M1992.93,17.89c6.28-.79,7.07-7.08,7.07-7.08S1993.71,11.6,1992.93,17.89Z"/><path class="cls-1" d="M2000,20.81c3.89-5,0-10,0-10S1996.11,15.81,2000,20.81Z"/></g></g></svg>