<svg xmlns="http://www.w3.org/2000/svg" viewBox="0 0 670.3 178.51"><defs><style>.cls-1{font-size:15px;font-family:Athelas-Regular, Athelas;letter-spacing:0.46em;}.cls-1,.cls-3{fill:#413f3d;}.cls-2{letter-spacing:0.44em;}</style></defs><g id="Layer_2" data-name="Layer 2"><g id="Layer_1-2" data-name="Layer 1"><text class="cls-1" transform="translate(236.16 134.71)">PH<tspan class="cls-2" x="33.38" y="0">OT</tspan><tspan x="67.51" y="0">OGRAPHY</tspan></text><path class="cls-3" d="M54.1,114.71c-.9,3.1-4.4,15.3-4.4,18.4v.1a3,3,0,0,0,1.6-1.3c3.9-4.5,7.5-9.2,10.9-14,13.4-18.5,26.31-37.21,39-56.11q13.8-20.55,28.3-40.5c4.4-5.9,7.1-11.9,11.9-17.8a3.78,3.78,0,0,1,2.7-1.7,1.45,1.45,0,0,1,1.4,1.5,1.49,1.49,0,0,1-.2.9c-4.4,8.8-9.8,17.3-14.9,25.8a218.54,218.54,0,0,0-14.6,29.5c-2.3,5.5-4.7,11-6.9,16.6-2.4,6.1-4.2,12.41-6.2,18.71-2.2,7.2-3.9,14.5-5.5,21.7-2,8.8-4.1,27.1-4.6,36-.1,1.9-.2,4.3-.2,6.8,0,5.8.6,12.3,3.7,15.9a1.58,1.58,0,0,1,.5,1.2.9.9,0,0,1-.9.9,1.71,1.71,0,0,1-1.3-.7c-4.3-4.4-5-12.4-5.1-18.2v-4a198.07,198.07,0,0,1,3.1-36.8c5.6-29.9,14-50.41,27.2-77,.3-.6.5-1.2,1-2.1a8,8,0,0,0-2,2.3c-11.2,15.9-22,32-32.6,48.21-4.51,7-29,45-35.81,49.9a4.5,4.5,0,0,1-2.5.9c-1.7,0-3-1.3-3.2-3.6v-1.1c0-11.9,12.9-52.31,16-61.51,5.9-17.4,13.7-35.1,21.1-52.2A6.25,6.25,0,0,0,80,23.1C58.4,54.7,37.5,86.71,18.1,119.71c-2,3.4-10.5,18-12.7,20.4a3.76,3.76,0,0,1-2.7,1.4c-1.5,0-2.7-1.3-2.7-3.4v-.2c.1-6.3,4.9-17.2,7.9-22.5,11.3-20,22.8-39.81,35.6-59,4-5.9,13.7-19.2,20.2-23.4a4.26,4.26,0,0,1,2.1-.8,3.58,3.58,0,0,1,2.5,1.4c.7-.4.9-1.1,1.3-1.7C71.9,28.4,89.31,1.8,90.21.8a3,3,0,0,1,2-.8c1.2,0,2.4.9,2.4,3a8.27,8.27,0,0,1-.5,2.8c-2.1,6.1-4.7,12.1-7.2,18.1-5.7,14.3-12,28.4-17.31,42.9C63.7,82.5,58.6,98.51,54.1,114.71ZM64.5,39.2a1.34,1.34,0,0,0-.2-.8,5,5,0,0,0-1.7,1.5C49.2,54.3,29,88.51,19.3,105.41c-3.4,5.8-6.7,11.7-9.6,17.8a4,4,0,0,0-.7,2v.3l10.6-17.6C33.4,85.6,49.1,63.1,63.7,40.9A2.72,2.72,0,0,0,64.5,39.2Z"/><path class="cls-3" d="M112.1,104.21a2.43,2.43,0,0,1-2.5-2.3,2.92,2.92,0,0,1,.2-.9c.4-1.2.8-2.3,1.3-3.5a28.2,28.2,0,0,1,6.7-8.7,8.68,8.68,0,0,1,5.6-2.1,6.34,6.34,0,0,1,5.5,2.7c.1.1.1.1.2.1.4,0,.9-.6,1.4-.7.1,0,.3-.1.4-.1.8,0,1.2.9,1.2,1.8a2,2,0,0,1-.1.8c-.7,2.2-5,9.5-5,13.6,0,1.6.7,2.7,2.6,2.7h.1c13.6,0,31.1-14.5,32.6-15.1h.1c.1,0,.1,0,.1.1a.31.31,0,0,1-.1.2c-6.3,6.4-23.2,16.1-32.1,16.5h-.6c-3.9,0-5.2-2.4-5.2-5.3a19.36,19.36,0,0,1,2.1-8c-3.5,2.3-10.3,7-13.7,8.1A2.2,2.2,0,0,1,112.1,104.21Zm3.1-5.1c0,.3.1.4.2.4a1.69,1.69,0,0,0,.5-.2,46.88,46.88,0,0,0,9.9-7.3,2.54,2.54,0,0,0-2.2-1.4,2.73,2.73,0,0,0-1.4.4c-2.2,1.1-5.4,4.6-6.5,6.6A3.71,3.71,0,0,0,115.2,99.11Z"/><path class="cls-3" d="M157.5,121.91c0-8.5,9.2-19.8,10.3-23.9,0-.2.1-.4.1-.6,0-2.7-5.7-2.5-8.2-4.2a3.2,3.2,0,0,1-.8-2.3,10.08,10.08,0,0,1,2.6-6.11,3.15,3.15,0,0,1,2.2-.9,3.25,3.25,0,0,1,3.4,3.1,4.34,4.34,0,0,1-1.3,3c3.5,1.2,6.9,2.4,6.9,6.2a6.48,6.48,0,0,1-.2,1.9c-.6,3.2-12.8,16.3-12.8,24.9v.6a4.67,4.67,0,0,0,3.7,4.5,5.9,5.9,0,0,0,1.4.2c11.7,0,40.2-30.4,48-34.8.7-.4,1.4-.7,2.1-1.1.2.2.3.4.4.5A4.49,4.49,0,0,1,214,94c-12.2,7.6-37,35.6-49.6,35.6a5.28,5.28,0,0,1-1.3-.1,6,6,0,0,1-5.2-4.6A9.48,9.48,0,0,1,157.5,121.91Z"/><path class="cls-3" d="M172.4,173.11v-.2c0-8.9,6.9-18,12.6-25,11.2-13.8,23.9-23,38-33.2a7.82,7.82,0,0,0,2.3-2.5c2.6-4.7,6.1-10.5,8.3-15.1-.1,0-.2-.1-.3-.2-.5.5-1.1.9-1.6,1.4-3.6,3.3-14.3,12.5-18.8,14.3a5.56,5.56,0,0,1-2.1.4c-2,0-3.3-1.4-3.3-3.7v-.6c.6-9.8,10.6-22.61,14-22.61a1,1,0,0,1,.9.4,2,2,0,0,1,.4,1.21c0,1.3-1.1,2.5-2.1,3.9a71.52,71.52,0,0,0-8.3,15.1,5.68,5.68,0,0,0-.7,2.2,4.25,4.25,0,0,0,.2,1.1,25.47,25.47,0,0,0,3.3-1.7c9.8-6,14.8-11.1,23-18.5a4.09,4.09,0,0,1,1-.9,3.09,3.09,0,0,1,.8-.2c.6,0,.9.39.9,1v.4c-.1.9-7.9,15.5-9,17.7v.3a1.76,1.76,0,0,1-.1.6A142.32,142.32,0,0,1,265.1,92c.1.1.2.3.3.4a3.92,3.92,0,0,1-1,.8c-2,.9-4,1.7-6,2.5a151,151,0,0,0-27.9,15.9,7.78,7.78,0,0,0-2,2.4c-3.3,6.3-6.4,12.6-9.7,18.8-7.5,13.7-17.4,29.7-29,40.6-2.9,2.8-7.4,5.1-11.4,5.1a7.57,7.57,0,0,1-1.5-.1C173.7,177.81,172.5,176.31,172.4,173.11Zm2.2-.6v.4c0,2.4.9,3.2,3.5,3.3h.3c2.9,0,6.3-1.7,8.4-3.5a98.09,98.09,0,0,0,19.2-24.3c4.3-7.3,13.3-23.3,16.3-30.8-3.9,2.5-9,6.5-12.7,9.4-12,9.3-24.4,21.4-31.9,34.8A21.73,21.73,0,0,0,174.6,172.51Z"/><path class="cls-3" d="M256.8,109.21a10.73,10.73,0,0,1,1-3.8,84,84,0,0,1,11-19c1.4-1.91,2.6-2.61,3.5-2.61a1.92,1.92,0,0,1,1.7,2.1,2,2,0,0,1-.1.81c-1.5,4.1-5.1,10-7.3,14.2a4.34,4.34,0,0,0-.8,2.7c4.3-3.7,15.4-13.8,18.8-15.9a4,4,0,0,1,2.1-.71c1.4,0,2.2,1.1,2.3,3.11v.4c0,1.9-.3,5.2-.3,8.4,0,3.9.5,7.7,2.5,8.8a8.49,8.49,0,0,0,3.8.9c10.2,0,22.8-16.1,24.1-16.1h.1v.2a1.33,1.33,0,0,1-.3.8c-5.1,5.7-15.9,16.8-24.8,16.8a8.68,8.68,0,0,1-4.2-1c-3.4-1.7-3.9-5.9-3.9-9.8,0-1.8.1-3.6.1-5s.1-2.8.2-4.7c-1.1.9-1.8,1.3-2.5,1.9-6.1,5.7-12.3,11.4-18.4,17-1.7,1.6-3.6,3.9-5.6,3.9a3,3,0,0,1-1.5-.5A3.17,3.17,0,0,1,256.8,109.21Z"/><path class="cls-3" d="M316.2,104.21a2.43,2.43,0,0,1-2.5-2.3,2.92,2.92,0,0,1,.2-.9c.4-1.2.8-2.3,1.3-3.5a28.2,28.2,0,0,1,6.7-8.7,8.68,8.68,0,0,1,5.6-2.1,6.34,6.34,0,0,1,5.5,2.7c.1.1.1.1.2.1.4,0,.9-.6,1.4-.7.1,0,.3-.1.4-.1.8,0,1.2.9,1.2,1.8a2,2,0,0,1-.1.8c-.7,2.2-5,9.5-5,13.6,0,1.6.7,2.7,2.6,2.7h.1c13.6,0,31.1-14.5,32.6-15.1h.1c.1,0,.1,0,.1.1a.31.31,0,0,1-.1.2c-6.3,6.4-23.2,16.1-32.1,16.5h-.6c-3.9,0-5.2-2.4-5.2-5.3a19.36,19.36,0,0,1,2.1-8c-3.5,2.3-10.3,7-13.7,8.1A2.2,2.2,0,0,1,316.2,104.21Zm3.1-5.1c0,.3.1.4.2.4a1.69,1.69,0,0,0,.5-.2,46.88,46.88,0,0,0,9.9-7.3,2.54,2.54,0,0,0-2.2-1.4,2.73,2.73,0,0,0-1.4.4c-2.2,1.1-5.4,4.6-6.5,6.6A3.71,3.71,0,0,0,319.3,99.11Z"/><path class="cls-3" d="M371,138.1a16.07,16.07,0,0,0-.94,5.31c0,4.3,2,8.2,7,9.4a26.64,26.64,0,0,0,7.1.8,41.88,41.88,0,0,0,10.6-1.4c17.4-5.3,34.3-18.5,45.2-33,4.8-6.5,8-12.6,8-18.4,0-5.3-2.7-10.4-9.5-15.21a3.59,3.59,0,0,0-1.7-.6,1.86,1.86,0,0,0-1,.31c-13.12,7.08-37.65,23-52.71,37.26l-1.55-1.64C396.43,106.15,420,91.54,433.6,84.6c.3-.1.4-.2.4-.3s-.3-.3-.6-.59c-12-8.31-33.1-9.51-46.3-19.31-5.2-3.8-7.7-7.9-7.7-12.3,0-3.7,1.8-7.5,5.3-11.5a68.33,68.33,0,0,1,10.4-9.7c13.4-10.1,27.8-18.2,44.1-22.8,4.6-1.3,11-2.9,16.6-2.9a22,22,0,0,1,5.3.6c5.2,1.3,7.1,4.6,7.1,8.3a19.66,19.66,0,0,1-2.8,9.1c-3.8,6.8-9,12.6-14.6,18-1,1.1-2.1,1.9-2.6,3.4a4.28,4.28,0,0,1-3.6,2.3,2.52,2.52,0,0,1-2-.9,2.16,2.16,0,0,1-.6-1.6c0-1.4,1.1-2.6,2.2-3.5,5.8-5,18-17.7,18.9-26.2v-.5c0-3.5-3.4-4.5-7.6-4.5a53.38,53.38,0,0,0-12.7,2,124.71,124.71,0,0,0-52.2,28.4,29.58,29.58,0,0,0-5.7,6.5,10.57,10.57,0,0,0-1.7,5.5c0,5.1,4.7,9,9.7,11.8,12.3,7.1,30.7,9.6,44.2,18.1a1.92,1.92,0,0,0,1.2.4,4.25,4.25,0,0,0,1.1-.2c5.6-2,10.4-3.6,15.9-3.6a30.8,30.8,0,0,1,5.1.4c2.7.5,4.9,1.2,5.8,4.71h-.1c-1.2,0-.6-2.21-4-3.21a21,21,0,0,0-5.6-.7c-5.5,0-11.3,1.7-16,3.6-.3.1-.4.31-.4.4s0,.1.1.2c3.5,3,9.5,7.71,9.5,16.31,0,5.1-2.1,11.5-8.2,19.8-9.3,12.5-28.1,28.3-46.5,33.3a43.9,43.9,0,0,1-11.2,1.6,30,30,0,0,1-7.9-1c-5.4-1.5-7.7-6.2-7.7-10.9a15.5,15.5,0,0,1,1.3-6.1Z"/><path class="cls-3" d="M460.19,117.21c-1,0-1.7-.7-1.7-2.3a11,11,0,0,1,.6-3.2c2.2-6.9,4.3-13.9,6.7-20.7.8-2.1,2.5-3.91,4-5.7a2.59,2.59,0,0,1,2-1,1.87,1.87,0,0,1,1.91,2,5,5,0,0,1-.3,1.6c-1,2.4-2.11,4.7-3.4,7.5a6.15,6.15,0,0,0,2.4-1.8c4.8-5.2,14.5-13.91,21.4-16.21a3.64,3.64,0,0,1,1.4-.2,2.65,2.65,0,0,1,2.8,2.9v.6c-.4,4.2-4.2,11.91-5.8,16.51a74.14,74.14,0,0,0-2.4,8.4,3.59,3.59,0,0,0-.2,1.1c0,.6.1,1.3.1,2.2,1.5-1.1,2.6-1.7,3.5-2.5,2.5-2.4,9.1-9.3,11.3-11a3.7,3.7,0,0,1,2.1-.9c1.2,0,2,.9,2.3,2.7.6,4.1-.4,9.7,4.1,12.2a10,10,0,0,0,4.7,1.2c5.3,0,11-3.6,15-6.8a126.17,126.17,0,0,0,11.8-11.4,2.18,2.18,0,0,1,.5.4,83.75,83.75,0,0,1-12,11.8c-4.3,3.6-10.2,7.3-15.9,7.3a11.94,11.94,0,0,1-4.9-1c-5.1-2.4-5.3-9.4-5.8-14.3-2.9,1.6-10.3,12.2-14.8,14.3a3.92,3.92,0,0,1-1.8.4,2.89,2.89,0,0,1-2.9-2.9,10.87,10.87,0,0,1-.1-1.8,14.2,14.2,0,0,1,.4-3.6c1.9-6.6,4.5-13,6.8-19.41a6,6,0,0,0,.2-1.5,4.48,4.48,0,0,0-.1-1.1c-1.2.8-2.5,1.5-3.7,2.4-7.3,5.31-13.2,12.11-18.5,19.31-2.9,3.8-5.31,7.9-8,11.8C462.69,116.21,461.29,117.21,460.19,117.21Z"/><path class="cls-3" d="M541.69,112.81c-3.2,0-5.1-2.1-5.1-5.6V107c.1-6.5,5-14.3,9.3-18.7,1.4-1.4,2.4-1.9,3.2-1.9a1.52,1.52,0,0,1,1.5,1.69,2,2,0,0,1-.1.81,8.11,8.11,0,0,1-1.4,2c-2.5,3.8-5.2,7.6-7.6,11.5a11.75,11.75,0,0,0-1.6,5.3c0,1.8.7,3.1,2.6,3.1h.6c6.4-.7,23-9.5,28.51-13,2.6-1.7,5.2-3.6,7.8-5.4a.6.6,0,0,1,.4-.1c.1,0,.3,0,.3.2s-.2.4-.8.8c-9.8,7.1-23.71,16.7-35.91,19.3A11.14,11.14,0,0,1,541.69,112.81ZM553.59,82a2,2,0,0,1-2-2.1c0-1.3,1-2.7,3.2-2.7a6,6,0,0,1,2.2.4c.9.3,1.4.8,1.4,1.3,0,1-1.2,2.1-3.8,2.9A4.4,4.4,0,0,1,553.59,82Z"/><path class="cls-3" d="M605.49,88c-1.5,2.71-6.6,11.61-7.4,13.71.8,0,1.1-.6,1.4-1,2.4-2.5,10-10.1,15.3-10.1,1.8,0,3.3.9,4.3,3.1,2,4.7.6,9.8,2.5,14.5,1.41,3.4,2.81,4.5,5.5,4.8h.51c7.2,0,19.9-13.5,27.2-19.4a3.67,3.67,0,0,1,1.8-1.1c.1.2.2.3.2.5,0,.4-.6.7-.9.9-7.7,6.6-20.7,21-28.7,21H627a7.64,7.64,0,0,1-6.41-3.5c-3.3-5.2-2-9-3-14.3-.5-2.7-1.4-4-2.9-4a7.48,7.48,0,0,0-3.3,1.1c-6.1,3.4-13,11.6-16.9,17.2-1,1.4-2,3.2-3.4,3.2a1.7,1.7,0,0,1-.7-.1,1.67,1.67,0,0,1-1-1.7,10.89,10.89,0,0,1,.8-3.1,45.59,45.59,0,0,1,3.7-8.5c7.4-13.71,19-35.41,27.9-48.21.3-.4.8-.7.8-1.5h-3.2c-4.3,0-11.5,0-11.9.1a2.54,2.54,0,0,0-2.6,1.3c-11.4,18.1-21.3,34.81-31.5,53.61-3.8,7.1-8.9,19-9.9,22.5a18.31,18.31,0,0,0-.9,5.2,8.42,8.42,0,0,0,.4,2.7,1.09,1.09,0,0,1,.1.5.92.92,0,0,1-.8,1c-.8,0-1.8-1-1.9-4.1v-.1c0-5.7,5.8-19.2,13-33.8,9.4-18.81,21.1-39.31,25.2-46.21a5,5,0,0,0,.9-2.1.37.37,0,0,0-.4-.4h-.2c-9.8.6-18.6,1.3-27.2,3a25.66,25.66,0,0,1-5.2.6,7.59,7.59,0,0,1-1.6-.1c-1.8-.5-2.4-1.5-2.4-2.5,0-2.2,3.1-4.9,4.8-4.9a1.27,1.27,0,0,1,.6.1,2,2,0,0,1,1.2,1.9,5.84,5.84,0,0,1-.4,2h.4c3.3,0,28.5-1.9,31-2.2a2.61,2.61,0,0,0,2.3-1.4c1.9-3,14.1-21.4,16.61-23.7a6.51,6.51,0,0,1,3.59-1.3c.8,0,1.11.9,1.11,1.8a6.5,6.5,0,0,1-.2,1.3c-2,4.4-12.71,16.6-15.11,20.7-.2.5-.8,1.2-.8,1.7,0,.3.2.6.9.6h8.2c3.1,0,5.9,0,6.6.1,1.11,0,2.71-1.7,3.3-2.5,6.51-7.6,7.41-8.6,15.51-14.4a10.91,10.91,0,0,1,3.9-1.9,2.77,2.77,0,0,1,.9-.1,2.45,2.45,0,0,1,2.6,2.7c0,.2-.1.5-.1.8-.8,4-4.5,10.7-7.3,15a5.44,5.44,0,0,0-.4.8c0,.2.2.3.7.3,9.2.1,17.8.7,26.9,1.1a1.57,1.57,0,0,1,1,1.2q0,.6-.9.6h-.2c-1.3-.1-2.1-.7-3.3-.7-8.4-.5-15.6-.6-24.9-.6-1,0-1.4,0-2,.7-5.8,7.1-24.71,29-32.41,34.2A3.26,3.26,0,0,0,605.49,88Zm3.1-5.6a.37.37,0,0,0,.1.3c2.7-1.8,24.41-25.8,27.81-30.7.2-.2.3-.3.3-.4s-.1-.2-.4-.2c-1-.1-2.1-.1-3-.1h-4.5c-1.2,0-1.81.7-2.61,1.8-5.2,7.9-12.8,20.6-17.5,28.9A.76.76,0,0,0,608.59,82.4Zm20.7-33.2c0,.3.31.4.91.5.8.1,4.9.1,7,.3a1.75,1.75,0,0,0,1.3-.5c2.1-2.8,8.2-13,8.2-16.1-4.1,1-14.4,11.5-17.2,15.3A1.78,1.78,0,0,0,629.29,49.2Z"/></g></g></svg>