<svg xmlns="http://www.w3.org/2000/svg" viewBox="0 0 21 18"><defs><style>.cls-1{fill:#413f3d;fill-rule:evenodd;}.cls-2,.cls-3{fill:none;stroke:#413f3d;stroke-miterlimit:10;}.cls-3{stroke-width:2px;}</style></defs><g id="Layer_2" data-name="Layer 2"><g id="Layer_1-2" data-name="Layer 1"><path class="cls-1" d="M9.62,7.18H7.53A24.76,24.76,0,0,1,9,4.31H7.53A2.18,2.18,0,0,1,5.37,2.15,2.14,2.14,0,0,1,7.53,0,3.83,3.83,0,0,1,10.4,1.66,3.81,3.81,0,0,1,13.27,0a2.13,2.13,0,0,1,2.15,2.15,2.18,2.18,0,0,1-2.15,2.16H11.83a22,22,0,0,1,1.44,2.87H11.18a9.92,9.92,0,0,0-.78-2.43A10.66,10.66,0,0,0,9.62,7.18ZM7.78,1.44a.72.72,0,1,0,.09,1.43h1.6C8.73,1.84,8.38,1.44,7.78,1.44Zm5.22,0a.72.72,0,1,1-.09,1.43H11.32C12.06,1.84,12.4,1.44,13,1.44Z"/><path class="cls-2" d="M17.25,3.5H19A1.48,1.48,0,0,1,20.5,5V16A1.48,1.48,0,0,1,19,17.5H2A1.48,1.48,0,0,1,.5,16V5A1.48,1.48,0,0,1,2,3.5H3.53"/><line class="cls-3" x1="0.5" y1="11.5" x2="20.5" y2="11.5"/></g></g></svg>